<svg id="图层_1" data-name="图层 1" xmlns="http://www.w3.org/2000/svg" viewBox="0 0 200 200"><path d="M76.05,175.71H64.81a11.63,11.63,0,0,0-1.14-.25c-18.23-1.81-33.77-9.19-46.35-22.55A61.76,61.76,0,0,1,1.7,123.54c-.6-2.7-.85-5.44-1.35-8.15v-9.76c.09-.43.21-.86.26-1.29C2.89,84.43,11.89,68.23,27.77,56c13-9.95,27.81-14.72,44.14-14.88a20,20,0,0,0,5.54-.62c20.89-6.11,41.8-12.15,62.69-18.26,3.58-1.05,7.24-1.87,10.72-3.28h.88a64.34,64.34,0,0,1-.82,19.68c-.53,2.46-.5,2.46,2.06,2.47l47.26,0v.6a96,96,0,0,1-5.5,11.93C184,71.92,168.35,83.24,147.55,87.33c-1.26.25-1.3.72-.68,1.68a47.77,47.77,0,0,1,3.57,6.46c.21.47.74,1,.34,1.48s-1,0-1.5-.19c-8.51-2.86-17.12-5.35-25.86-7.37a3.9,3.9,0,0,0-.57-.13c-.2,0-.44-.23-.61.16,10.35,3.58,20,8.24,27.37,16.69a3.44,3.44,0,0,1-1.52-.12q-31.78-8.13-63.56-16.3a17.49,17.49,0,0,0-8.89.12A48.7,48.7,0,0,0,69.21,92c-1.66.7-1.64.68-.5,2,5.91,7.08,7.37,15,4.61,23.81-.69,2.16-.94,2.17-2.56.67-4.81-4.45-9.61-8.9-14.45-13.32-2.94-2.67-3-2.64-5.49.42-1.36,1.65-1.35,1.66.58,2.44A27.81,27.81,0,0,1,67.94,125.5c.6,1.74.43,1.92-1.37,1.56-7-1.4-14-2.83-21-4.23-2.91-.59-2.91-.58-3.23,2.35-.18,1.65-.11,1.72,1.51,1.55a29.86,29.86,0,0,1,22.82,6.47c.78.63,2.11,1.19,1.92,2.22s-1.62.89-2.53,1.19q-10.19,3.33-20.4,6.57c-1.15.36-1.55.86-1,2s.88,2.09,1.26,3.16,1.08,1.34,2.18,1c3.23-.91,6.47-1.75,9.7-2.63l33.67-9.1c1.63-.44,1.82-.31,2.21,1.37a16.21,16.21,0,0,1-.56,9c-.63,1.88-.64,1.89,1.32,1.89h26c.55,0,1.31-.28,1.61.37s-.33,1-.63,1.42c-9.07,13-21.43,20.78-37.14,23.12C81.54,175.25,78.79,175.43,76.05,175.71Z"/></svg>